# xmcd CD database file
#
# Track frame offsets:
#	150
#	12571
#	28998
#	45253
#	57140
#	58167
#	72237
#	87467
#	106996
#	121788
#	135127
#	151012
#	163538
#	177604
#	195320
#	209378
#	217800
#	231025
#	245595
#	260191
#	274636
#	290040
#	305493
#	319582
#	333587
#
# Disc length: 4659 seconds
#
# Revision: 1
# Processed by: cddbd v1.5.1PL0 Copyright (c) Steve Scherf et al.
# Submitted via: CDex 1.51
#
DISCID=68123119
DTITLE=Linkin Park - 25 Greatest Hits
DYEAR=2004
DGENRE=New Age
TTITLE0=Faint
TTITLE1=In The End
TTITLE2=Somewhere I Belong
TTITLE3=One Step Closer
TTITLE4=Foreword
TTITLE5=Don't Stay
TTITLE6=Points Of Authority
TTITLE7=My December
TTITLE8=Forgotten
TTITLE9=Lying From You
TTITLE10=Crawling
TTITLE11=Hit The Floor
TTITLE12=Papercut
TTITLE13=Step Up
TTITLE14=A Place For My Head
TTITLE15=X-Ecutioner Style
TTITLE16=From The Inside
TTITLE17=Pushing Me Away
TTITLE18=Figure .09
TTITLE19=By Myself
TTITLE20=Easier To Run
TTITLE21=With You
TTITLE22=Numb
TTITLE23=Runaway
TTITLE24=High Voltage
EXTD=YEAR: 2004
EXTT0=
EXTT1=
EXTT2=
EXTT3=
EXTT4=
EXTT5=
EXTT6=
EXTT7=
EXTT8=
EXTT9=
EXTT10=
EXTT11=
EXTT12=
EXTT13=
EXTT14=
EXTT15=
EXTT16=
EXTT17=
EXTT18=
EXTT19=
EXTT20=
EXTT21=
EXTT22=
EXTT23=
EXTT24=
PLAYORDER=
